<?xml version="1.0" encoding="UTF-8"?>
<svg xmlns="http://www.w3.org/2000/svg" xmlns:xlink="http://www.w3.org/1999/xlink" width="107px" height="38px" viewBox="0 0 107 38" version="1.1">
<g id="surface1">
<path style=" stroke:none;fill-rule:nonzero;fill:rgb(0%,0%,0%);fill-opacity:1;" d="M 90.460938 14.4375 C 90.023438 14.503906 89.371094 14.644531 89.039062 14.75 C 88.371094 14.960938 88.300781 15.128906 88.769531 15.414062 L 89.078125 15.59375 L 89.039062 15.910156 C 89.019531 16.085938 88.964844 16.363281 88.925781 16.535156 L 88.847656 16.847656 L 88.367188 16.753906 C 87.027344 16.488281 85.507812 16.742188 84.359375 17.425781 C 83.328125 18.039062 82.820312 18.667969 82.65625 19.5625 C 82.480469 20.511719 83.015625 21.269531 84.09375 21.597656 C 84.472656 21.714844 84.609375 21.734375 85.183594 21.746094 C 86.234375 21.777344 86.832031 21.632812 87.597656 21.171875 L 87.996094 20.929688 L 88.039062 21.105469 C 88.097656 21.335938 88.292969 21.523438 88.589844 21.640625 C 88.789062 21.722656 88.914062 21.734375 89.417969 21.734375 C 89.914062 21.734375 90.0625 21.71875 90.371094 21.628906 C 90.8125 21.496094 91.179688 21.265625 91.378906 20.996094 C 91.558594 20.765625 91.578125 20.644531 91.457031 20.570312 C 91.335938 20.492188 91.238281 20.507812 90.910156 20.664062 C 90.558594 20.835938 90.46875 20.84375 90.324219 20.710938 C 90.226562 20.617188 90.265625 20.429688 90.882812 17.695312 C 91.242188 16.097656 91.558594 14.726562 91.578125 14.65625 C 91.628906 14.46875 91.476562 14.394531 91.0625 14.398438 C 90.871094 14.402344 90.605469 14.417969 90.460938 14.4375 Z M 87.601562 17.316406 C 88.234375 17.464844 88.542969 17.988281 88.40625 18.6875 C 88.195312 19.746094 87.542969 20.539062 86.695312 20.769531 C 86.070312 20.9375 85.445312 20.808594 85.148438 20.449219 C 84.601562 19.773438 84.988281 18.316406 85.886719 17.65625 C 86.324219 17.339844 87.066406 17.191406 87.601562 17.316406 Z M 87.601562 17.316406 "/>
<path style=" stroke:none;fill-rule:nonzero;fill:rgb(0%,0%,0%);fill-opacity:1;" d="M 8.378906 14.503906 C 8.15625 14.53125 8 14.667969 8 14.828125 C 8 14.953125 8.050781 15.007812 8.304688 15.148438 C 8.65625 15.34375 8.742188 15.46875 8.742188 15.761719 C 8.742188 16.070312 7.855469 20.097656 7.726562 20.386719 C 7.613281 20.632812 7.339844 20.839844 6.773438 21.105469 C 6.464844 21.253906 6.386719 21.4375 6.582031 21.566406 C 6.71875 21.648438 6.792969 21.652344 8.402344 21.664062 C 10.257812 21.679688 10.582031 21.664062 10.773438 21.546875 C 10.992188 21.40625 10.933594 21.242188 10.574219 21.003906 C 10.21875 20.761719 10.113281 20.628906 10.113281 20.40625 C 10.113281 20.097656 10.503906 18.449219 10.601562 18.355469 C 10.660156 18.300781 10.804688 18.25 10.941406 18.230469 C 11.078125 18.214844 12.140625 18.199219 13.308594 18.199219 C 15.234375 18.199219 15.449219 18.207031 15.613281 18.273438 C 15.839844 18.367188 15.839844 18.429688 15.601562 19.484375 C 15.359375 20.53125 15.273438 20.664062 14.628906 20.988281 C 14.09375 21.257812 13.980469 21.414062 14.214844 21.566406 C 14.355469 21.648438 14.40625 21.652344 16.285156 21.652344 L 18.214844 21.652344 L 18.371094 21.539062 C 18.613281 21.359375 18.574219 21.238281 18.230469 21.027344 C 17.875 20.8125 17.746094 20.636719 17.746094 20.375 C 17.746094 20.109375 18.648438 16.066406 18.757812 15.828125 C 18.902344 15.507812 19.03125 15.394531 19.5 15.160156 C 19.953125 14.933594 20.074219 14.796875 19.996094 14.636719 C 19.925781 14.492188 19.566406 14.46875 17.695312 14.484375 L 15.90625 14.496094 L 15.75 14.613281 C 15.507812 14.792969 15.546875 14.90625 15.917969 15.136719 C 16.304688 15.371094 16.375 15.472656 16.375 15.777344 C 16.375 16.035156 16.136719 17.148438 16.050781 17.292969 C 15.933594 17.492188 15.835938 17.5 13.558594 17.511719 C 11.273438 17.523438 10.941406 17.503906 10.824219 17.34375 C 10.777344 17.277344 10.804688 17.0625 10.921875 16.574219 C 11.167969 15.5625 11.234375 15.460938 11.835938 15.179688 C 12.257812 14.980469 12.394531 14.867188 12.394531 14.710938 C 12.394531 14.5 12.175781 14.476562 10.230469 14.480469 C 9.285156 14.484375 8.449219 14.496094 8.378906 14.503906 Z M 8.378906 14.503906 "/>
<path style=" stroke:none;fill-rule:nonzero;fill:rgb(0%,0%,0%);fill-opacity:1;" d="M 59.007812 14.535156 C 58.613281 14.640625 58.613281 14.863281 59.007812 15.125 C 59.347656 15.355469 59.4375 15.464844 59.4375 15.609375 C 59.4375 15.792969 58.074219 20.402344 57.960938 20.589844 C 57.871094 20.742188 57.675781 20.882812 57.132812 21.171875 C 56.753906 21.367188 56.773438 21.605469 57.171875 21.652344 C 57.289062 21.667969 57.878906 21.671875 58.484375 21.664062 C 59.542969 21.652344 59.582031 21.648438 59.703125 21.554688 C 59.886719 21.414062 59.855469 21.28125 59.605469 21.109375 C 59.308594 20.894531 59.242188 20.800781 59.242188 20.59375 C 59.234375 20.402344 60.277344 16.492188 60.34375 16.441406 C 60.371094 16.425781 60.851562 17.46875 61.425781 18.765625 C 62.078125 20.234375 62.515625 21.144531 62.589844 21.1875 C 62.804688 21.328125 63.339844 21.246094 63.601562 21.035156 C 63.679688 20.972656 64.726562 19.890625 65.941406 18.625 C 67.148438 17.363281 68.152344 16.335938 68.160156 16.34375 C 68.207031 16.371094 67.449219 20.230469 67.359375 20.425781 C 67.265625 20.640625 67.117188 20.761719 66.535156 21.085938 C 66.253906 21.238281 66.191406 21.429688 66.359375 21.5625 C 66.46875 21.648438 66.523438 21.652344 68.160156 21.664062 C 69.085938 21.671875 69.941406 21.664062 70.058594 21.652344 C 70.367188 21.617188 70.527344 21.5 70.527344 21.316406 C 70.527344 21.183594 70.476562 21.125 70.164062 20.929688 C 69.902344 20.761719 69.785156 20.652344 69.738281 20.527344 C 69.695312 20.390625 69.765625 19.839844 70.070312 18.046875 C 70.289062 16.773438 70.496094 15.667969 70.542969 15.578125 C 70.613281 15.425781 70.71875 15.347656 71.296875 15.027344 C 71.546875 14.890625 71.578125 14.855469 71.558594 14.726562 C 71.527344 14.5 71.394531 14.476562 70.011719 14.476562 L 68.820312 14.476562 L 68.609375 14.609375 C 68.492188 14.683594 67.4375 15.746094 66.261719 16.976562 C 65.082031 18.207031 64.09375 19.199219 64.070312 19.175781 C 64.035156 19.160156 63.566406 18.144531 63.019531 16.921875 C 62.164062 15.019531 61.996094 14.6875 61.84375 14.585938 L 61.667969 14.476562 L 60.433594 14.476562 C 59.554688 14.480469 59.148438 14.496094 59.007812 14.535156 Z M 59.007812 14.535156 "/>
<path style=" stroke:none;fill-rule:nonzero;fill:rgb(0%,0%,0%);fill-opacity:1;" d="M 24.664062 16.652344 C 23.039062 16.796875 21.636719 17.4375 20.902344 18.363281 C 20.121094 19.363281 20.289062 20.46875 21.335938 21.136719 C 22.417969 21.835938 24.441406 21.984375 26.117188 21.492188 C 27.710938 21.027344 28.699219 20.078125 28.8125 18.917969 C 28.917969 17.867188 28.105469 17.078125 26.613281 16.761719 C 26.070312 16.648438 25.230469 16.601562 24.664062 16.652344 Z M 25.492188 17.316406 C 26.136719 17.46875 26.484375 18.066406 26.402344 18.898438 C 26.304688 19.933594 25.574219 20.867188 24.695312 21.082031 C 24.316406 21.171875 23.820312 21.136719 23.480469 21 C 23.175781 20.867188 22.867188 20.484375 22.761719 20.09375 C 22.554688 19.300781 23.019531 18.167969 23.769531 17.65625 C 24.238281 17.332031 24.960938 17.191406 25.492188 17.316406 Z M 25.492188 17.316406 "/>
<path style=" stroke:none;fill-rule:nonzero;fill:rgb(0%,0%,0%);fill-opacity:1;" d="M 79.507812 16.746094 L 78.925781 16.875 L 78.214844 16.757812 C 77.289062 16.609375 76.363281 16.621094 75.664062 16.792969 C 73.746094 17.257812 72.421875 18.484375 72.402344 19.824219 C 72.386719 20.695312 72.929688 21.316406 73.972656 21.625 C 74.3125 21.722656 74.417969 21.734375 75.101562 21.734375 L 75.859375 21.734375 L 76.40625 21.5625 C 76.785156 21.441406 77.085938 21.3125 77.359375 21.144531 L 77.75 20.894531 L 77.855469 21.132812 C 78.0625 21.597656 78.507812 21.78125 79.351562 21.746094 C 80.355469 21.707031 81.273438 21.195312 81.214844 20.714844 C 81.191406 20.484375 81.046875 20.472656 80.660156 20.660156 C 80.492188 20.742188 80.320312 20.808594 80.277344 20.808594 C 80.113281 20.808594 79.988281 20.683594 79.988281 20.507812 C 79.988281 20.414062 80.164062 19.578125 80.378906 18.660156 C 80.597656 17.738281 80.773438 16.949219 80.773438 16.902344 C 80.773438 16.773438 80.484375 16.613281 80.269531 16.617188 C 80.171875 16.617188 79.824219 16.675781 79.507812 16.746094 Z M 77.398438 17.332031 C 77.945312 17.472656 78.203125 17.882812 78.144531 18.527344 C 78.003906 20.015625 76.699219 21.125 75.46875 20.792969 C 74.925781 20.648438 74.691406 20.34375 74.652344 19.71875 C 74.601562 18.84375 75.042969 17.992188 75.773438 17.574219 C 75.964844 17.460938 76.222656 17.351562 76.34375 17.328125 C 76.660156 17.261719 77.152344 17.265625 77.398438 17.332031 Z M 77.398438 17.332031 "/>
<path style=" stroke:none;fill-rule:nonzero;fill:rgb(0%,0%,0%);fill-opacity:1;" d="M 31.871094 16.753906 C 31.265625 16.878906 30.597656 17.078125 30.382812 17.207031 C 30.128906 17.355469 30.15625 17.472656 30.496094 17.667969 C 30.65625 17.757812 30.800781 17.878906 30.828125 17.933594 C 30.847656 17.992188 30.675781 18.832031 30.441406 19.804688 C 30.207031 20.777344 30.011719 21.59375 30.011719 21.621094 C 30.011719 21.648438 30.078125 21.699219 30.164062 21.734375 C 30.300781 21.792969 30.382812 21.785156 31.128906 21.671875 C 31.695312 21.582031 31.976562 21.519531 32.082031 21.457031 C 32.183594 21.386719 32.257812 21.230469 32.394531 20.769531 C 32.855469 19.148438 33.535156 18.128906 34.402344 17.734375 C 34.792969 17.554688 35.265625 17.511719 35.53125 17.621094 C 35.996094 17.816406 35.988281 18.195312 35.464844 20.097656 C 35.265625 20.832031 35.101562 21.492188 35.101562 21.570312 C 35.101562 21.804688 35.238281 21.816406 36.15625 21.671875 C 36.59375 21.601562 37 21.527344 37.058594 21.507812 C 37.226562 21.449219 37.292969 21.308594 37.515625 20.546875 C 38.050781 18.699219 39.101562 17.5625 40.269531 17.5625 C 41.070312 17.5625 41.128906 17.882812 40.648438 19.636719 C 40.371094 20.628906 40.328125 21.09375 40.476562 21.316406 C 40.59375 21.496094 40.984375 21.707031 41.273438 21.738281 C 41.703125 21.789062 42.351562 21.734375 42.726562 21.617188 C 43.472656 21.371094 44.03125 20.910156 43.855469 20.664062 C 43.757812 20.535156 43.578125 20.535156 43.269531 20.664062 C 42.996094 20.78125 42.703125 20.800781 42.644531 20.703125 C 42.566406 20.578125 42.605469 20.390625 42.90625 19.398438 C 43.160156 18.539062 43.199219 18.351562 43.171875 18.007812 C 43.121094 17.179688 42.460938 16.707031 41.292969 16.664062 C 40.253906 16.628906 39.246094 16.945312 38.382812 17.582031 C 38.199219 17.71875 38.101562 17.761719 38.082031 17.726562 C 37.816406 17.128906 37.429688 16.847656 36.671875 16.710938 C 36.078125 16.601562 35.421875 16.652344 34.742188 16.855469 C 34.148438 17.042969 33.484375 17.390625 33.128906 17.71875 C 33.027344 17.816406 32.921875 17.890625 32.910156 17.882812 C 32.894531 17.875 32.929688 17.691406 32.980469 17.476562 C 33.03125 17.265625 33.078125 17.023438 33.078125 16.941406 C 33.078125 16.644531 32.695312 16.585938 31.871094 16.753906 Z M 31.871094 16.753906 "/>
<path style=" stroke:none;fill-rule:nonzero;fill:rgb(0%,0%,0%);fill-opacity:1;" d="M 48.800781 16.734375 C 47.894531 16.890625 47.238281 17.144531 46.539062 17.617188 C 45.257812 18.480469 44.863281 19.785156 45.585938 20.726562 C 45.800781 21.007812 46.382812 21.382812 46.820312 21.519531 C 47.871094 21.855469 49.472656 21.832031 50.617188 21.472656 C 51.570312 21.167969 52.621094 20.453125 52.417969 20.246094 C 52.300781 20.125 52.105469 20.140625 51.765625 20.292969 C 50.394531 20.914062 48.933594 20.972656 48.058594 20.449219 C 47.824219 20.308594 47.496094 19.949219 47.496094 19.832031 C 47.496094 19.792969 47.667969 19.78125 48.136719 19.78125 C 50.046875 19.777344 51.824219 19.238281 52.371094 18.480469 C 52.9375 17.699219 52.246094 16.90625 50.820312 16.699219 C 50.363281 16.632812 49.285156 16.652344 48.800781 16.734375 Z M 50.171875 17.367188 C 51 17.644531 50.921875 18.421875 50.027344 18.824219 C 49.613281 19.015625 49.082031 19.125 48.339844 19.175781 C 47.773438 19.21875 47.691406 19.214844 47.53125 19.148438 C 47.359375 19.078125 47.355469 19.0625 47.386719 18.835938 C 47.496094 18.167969 48.292969 17.460938 49.089844 17.316406 C 49.46875 17.25 49.871094 17.269531 50.171875 17.367188 Z M 50.171875 17.367188 "/>
<path style=" stroke:none;fill-rule:nonzero;fill:rgb(0%,0%,0%);fill-opacity:1;" d="M 96.332031 16.722656 C 94.34375 17.035156 92.824219 18.21875 92.730469 19.535156 C 92.660156 20.476562 93.226562 21.171875 94.347656 21.523438 C 94.960938 21.71875 95.398438 21.769531 96.300781 21.746094 C 97.527344 21.714844 98.355469 21.488281 99.234375 20.933594 C 99.804688 20.578125 100.027344 20.351562 99.914062 20.242188 C 99.789062 20.117188 99.59375 20.144531 99.152344 20.332031 C 98.5625 20.582031 98.265625 20.679688 97.789062 20.746094 C 96.542969 20.933594 95.433594 20.632812 95.066406 20.015625 C 94.929688 19.792969 94.9375 19.792969 95.832031 19.769531 C 96.847656 19.746094 97.480469 19.644531 98.324219 19.382812 C 98.757812 19.246094 99.046875 19.125 99.308594 18.957031 C 99.75 18.683594 99.921875 18.480469 100.027344 18.132812 C 100.117188 17.804688 100 17.496094 99.671875 17.222656 C 99.453125 17.039062 98.917969 16.8125 98.519531 16.730469 C 98.140625 16.65625 96.78125 16.648438 96.332031 16.722656 Z M 97.488281 17.3125 C 97.996094 17.40625 98.335938 17.820312 98.199219 18.1875 C 98.003906 18.738281 97.175781 19.082031 95.84375 19.171875 C 94.996094 19.230469 94.863281 19.199219 94.863281 18.921875 C 94.863281 18.640625 95.074219 18.238281 95.375 17.945312 C 95.921875 17.414062 96.703125 17.179688 97.488281 17.3125 Z M 97.488281 17.3125 "/>
</g>
</svg>
