<?xml version="1.0" encoding="UTF-8"?>
<svg xmlns="http://www.w3.org/2000/svg" xmlns:xlink="http://www.w3.org/1999/xlink" width="107px" height="38px" viewBox="0 0 107 38" version="1.1">
<g id="surface1">
<path style=" stroke:none;fill-rule:nonzero;fill:rgb(0%,0%,0%);fill-opacity:1;" d="M 91.957031 16.613281 C 90.800781 16.742188 90.523438 16.886719 91.035156 17.09375 C 91.507812 17.28125 91.292969 17.964844 90.757812 17.898438 C 88.808594 17.632812 86.414062 18.042969 85.300781 18.832031 C 84.507812 19.378906 84.660156 20.179688 85.601562 20.480469 C 86.542969 20.777344 88.382812 20.761719 89.539062 20.4375 C 89.859375 20.34375 90.136719 20.285156 90.15625 20.300781 C 90.628906 20.609375 90.734375 20.632812 91.636719 20.65625 C 92.425781 20.671875 92.683594 20.648438 93.152344 20.472656 C 93.476562 20.359375 93.730469 20.222656 93.730469 20.171875 C 93.730469 20.042969 93.261719 20.035156 92.917969 20.15625 C 92.40625 20.335938 92.425781 19.972656 93.070312 18.390625 C 93.433594 17.503906 93.730469 16.710938 93.730469 16.636719 C 93.730469 16.460938 93.367188 16.460938 91.957031 16.613281 Z M 90.4375 18.398438 C 90.671875 18.574219 90.734375 18.734375 90.628906 18.992188 C 90.308594 19.769531 89.195312 20.285156 88.0625 20.1875 C 87.355469 20.117188 87.011719 19.875 87.035156 19.410156 C 87.078125 18.679688 88.039062 18.164062 89.34375 18.164062 C 89.964844 18.164062 90.136719 18.203125 90.4375 18.398438 Z M 90.4375 18.398438 "/>
<path style=" stroke:none;fill-rule:nonzero;fill:rgb(0%,0%,0%);fill-opacity:1;" d="M 8.859375 16.675781 C 8.796875 16.734375 8.945312 16.878906 9.179688 17 L 9.609375 17.214844 L 9.09375 18.542969 C 8.796875 19.273438 8.558594 19.90625 8.558594 19.933594 C 8.558594 19.972656 8.261719 20.101562 7.898438 20.222656 C 6.828125 20.582031 7.148438 20.671875 9.414062 20.671875 C 11.535156 20.671875 11.960938 20.582031 11.234375 20.292969 C 10.914062 20.164062 10.871094 20.054688 11 19.53125 C 11.0625 19.199219 11.191406 18.878906 11.257812 18.816406 C 11.449219 18.644531 14.015625 18.558594 15.921875 18.671875 L 16.734375 18.71875 L 16.585938 19.210938 C 16.390625 19.828125 16.179688 20.042969 15.472656 20.308594 C 15.171875 20.414062 15 20.542969 15.066406 20.589844 C 15.152344 20.640625 15.984375 20.671875 17.097656 20.671875 C 19.34375 20.671875 19.753906 20.589844 19.003906 20.253906 L 18.53125 20.042969 L 19.046875 18.742188 C 19.601562 17.257812 19.710938 17.121094 20.480469 16.902344 C 20.800781 16.8125 20.972656 16.703125 20.886719 16.660156 C 20.695312 16.546875 16.777344 16.539062 16.585938 16.644531 C 16.519531 16.683594 16.671875 16.820312 16.925781 16.941406 C 17.335938 17.128906 17.355469 17.214844 17.226562 17.625 C 17.011719 18.285156 16.863281 18.316406 14.273438 18.316406 C 13.074219 18.316406 11.960938 18.285156 11.792969 18.246094 C 11.535156 18.1875 11.535156 18.089844 11.726562 17.664062 C 11.917969 17.246094 12.089844 17.101562 12.625 16.925781 C 12.988281 16.804688 13.226562 16.675781 13.160156 16.636719 C 13.074219 16.597656 12.113281 16.566406 11 16.566406 C 9.4375 16.566406 8.945312 16.589844 8.859375 16.675781 Z M 8.859375 16.675781 "/>
<path style=" stroke:none;fill-rule:nonzero;fill:rgb(0%,0%,0%);fill-opacity:1;" d="M 60.453125 16.636719 C 60.390625 16.683594 60.519531 16.8125 60.753906 16.925781 L 61.203125 17.136719 L 60.453125 18.566406 C 59.683594 20.0625 59.578125 20.171875 58.851562 20.390625 C 58.1875 20.589844 58.507812 20.671875 59.941406 20.671875 C 61.375 20.671875 61.675781 20.574219 61.117188 20.277344 C 60.820312 20.117188 60.839844 19.996094 61.355469 18.902344 C 61.652344 18.246094 61.972656 17.707031 62.039062 17.707031 C 62.101562 17.707031 62.59375 18.277344 63.128906 18.96875 C 63.664062 19.667969 64.199219 20.285156 64.308594 20.34375 C 64.433594 20.40625 64.691406 20.429688 64.886719 20.40625 C 65.097656 20.375 66.296875 19.746094 67.558594 18.992188 C 68.824219 18.246094 69.890625 17.675781 69.933594 17.722656 C 69.957031 17.777344 69.808594 18.332031 69.59375 18.953125 C 69.207031 19.988281 69.121094 20.09375 68.609375 20.269531 C 67.710938 20.566406 67.964844 20.632812 70.148438 20.65625 C 72.394531 20.679688 72.695312 20.609375 71.902344 20.230469 L 71.433594 20.011719 L 71.882812 18.582031 C 72.289062 17.265625 72.375 17.128906 72.867188 16.949219 C 73.722656 16.628906 73.574219 16.566406 71.945312 16.566406 L 70.492188 16.566406 L 68.289062 17.859375 C 67.089844 18.566406 66.019531 19.167969 65.910156 19.191406 C 65.804688 19.210938 65.613281 19.105469 65.503906 18.945312 C 65.378906 18.789062 64.90625 18.195312 64.457031 17.632812 L 63.621094 16.605469 L 62.101562 16.582031 C 61.246094 16.566406 60.539062 16.597656 60.453125 16.636719 Z M 60.453125 16.636719 "/>
<path style=" stroke:none;fill-rule:nonzero;fill:rgb(0%,0%,0%);fill-opacity:1;" d="M 24.761719 17.890625 C 22.664062 18.15625 21.25 18.894531 21.441406 19.625 C 21.636719 20.308594 22.941406 20.695312 25.058594 20.695312 C 27.476562 20.695312 29.273438 20.164062 29.765625 19.289062 C 30.003906 18.886719 29.980469 18.824219 29.511719 18.492188 C 28.65625 17.882812 26.75 17.640625 24.761719 17.890625 Z M 27.09375 18.363281 C 27.328125 18.492188 27.457031 18.703125 27.457031 18.984375 C 27.414062 20.027344 25.464844 20.742188 24.203125 20.171875 C 23.347656 19.78125 23.710938 18.773438 24.867188 18.339844 C 25.53125 18.089844 26.621094 18.101562 27.09375 18.363281 Z M 27.09375 18.363281 "/>
<path style=" stroke:none;fill-rule:nonzero;fill:rgb(0%,0%,0%);fill-opacity:1;" d="M 32.679688 17.90625 C 31.609375 18.019531 31.222656 18.1875 31.652344 18.339844 C 31.972656 18.453125 31.949219 18.734375 31.523438 19.773438 C 31.328125 20.269531 31.203125 20.6875 31.265625 20.710938 C 31.328125 20.726562 31.800781 20.703125 32.3125 20.648438 L 33.253906 20.558594 L 33.621094 19.933594 C 34.261719 18.863281 35.308594 18.269531 36.421875 18.332031 C 37.109375 18.363281 37.171875 18.664062 36.679688 19.773438 C 36.488281 20.269531 36.359375 20.6875 36.421875 20.710938 C 36.464844 20.734375 36.9375 20.703125 37.449219 20.648438 L 38.390625 20.558594 L 38.753906 19.949219 C 39.375 18.9375 40.382812 18.316406 41.410156 18.316406 C 42.351562 18.316406 42.4375 18.46875 42.050781 19.296875 C 41.601562 20.253906 41.664062 20.527344 42.371094 20.648438 C 43.078125 20.761719 43.933594 20.695312 44.617188 20.472656 C 45.390625 20.222656 45.324219 20.054688 44.511719 20.109375 C 43.742188 20.171875 43.761719 20.191406 44.210938 19.289062 C 44.511719 18.734375 44.535156 18.550781 44.320312 18.308594 C 43.804688 17.699219 41.835938 17.640625 40.105469 18.179688 C 39.695312 18.308594 39.332031 18.398438 39.3125 18.382812 C 39.269531 18.371094 39.121094 18.261719 38.96875 18.148438 C 38.304688 17.675781 36.292969 17.714844 34.839844 18.21875 L 34.003906 18.507812 L 34.070312 18.171875 C 34.113281 17.988281 34.046875 17.828125 33.917969 17.8125 C 33.8125 17.808594 33.234375 17.84375 32.679688 17.90625 Z M 32.679688 17.90625 "/>
<path style=" stroke:none;fill-rule:nonzero;fill:rgb(0%,0%,0%);fill-opacity:1;" d="M 49.992188 17.890625 C 48.792969 18.050781 48.128906 18.238281 47.445312 18.636719 C 46.609375 19.105469 46.460938 19.644531 47.039062 20.078125 C 47.65625 20.519531 48.492188 20.6875 50.074219 20.6875 C 51.511719 20.6875 52.835938 20.472656 53.5625 20.125 C 54.164062 19.84375 53.886719 19.773438 52.902344 19.964844 C 51.574219 20.230469 50.71875 20.253906 49.863281 20.046875 C 48.640625 19.753906 48.769531 19.644531 50.484375 19.539062 C 52.195312 19.433594 53.179688 19.226562 53.777344 18.863281 C 54.890625 18.1875 52.472656 17.5625 49.992188 17.890625 Z M 51.980469 18.269531 C 52.128906 18.332031 52.214844 18.492188 52.171875 18.636719 C 52.085938 18.96875 51.019531 19.226562 49.734375 19.226562 C 48.707031 19.226562 48.578125 19.136719 49.007812 18.734375 C 49.5 18.261719 51.316406 17.980469 51.980469 18.269531 Z M 51.980469 18.269531 "/>
<path style=" stroke:none;fill-rule:nonzero;fill:rgb(0%,0%,0%);fill-opacity:1;" d="M 77.726562 17.867188 C 76.570312 17.988281 75.007812 18.589844 74.601562 19.070312 C 74.195312 19.554688 74.171875 19.753906 74.492188 20.042969 C 75.242188 20.742188 77.445312 20.90625 79.179688 20.398438 C 79.652344 20.253906 79.820312 20.230469 79.820312 20.316406 C 79.820312 20.695312 81.8125 20.808594 82.710938 20.480469 C 83.011719 20.382812 83.246094 20.246094 83.246094 20.179688 C 83.246094 20.042969 83.140625 20.035156 82.582031 20.140625 C 81.917969 20.269531 81.898438 20.101562 82.367188 18.945312 C 82.648438 18.285156 82.730469 17.875 82.582031 17.820312 C 82.453125 17.777344 82.113281 17.792969 81.640625 17.851562 C 81.105469 17.921875 80.699219 17.921875 80.101562 17.867188 C 79.136719 17.769531 78.6875 17.769531 77.726562 17.867188 Z M 79.84375 18.292969 C 80.570312 18.597656 79.90625 19.761719 78.816406 20.0625 C 77.574219 20.414062 76.613281 20.148438 76.613281 19.457031 C 76.613281 18.679688 77.488281 18.164062 78.835938 18.164062 C 79.246094 18.164062 79.671875 18.21875 79.84375 18.292969 Z M 79.84375 18.292969 "/>
<path style=" stroke:none;fill-rule:nonzero;fill:rgb(0%,0%,0%);fill-opacity:1;" d="M 98.652344 17.851562 C 97.070312 18.027344 96.148438 18.316406 95.464844 18.847656 C 94.628906 19.507812 95.039062 20.214844 96.429688 20.527344 C 97.96875 20.863281 100.835938 20.648438 101.886719 20.132812 C 102.507812 19.820312 102.25 19.773438 101.179688 19.988281 C 100.644531 20.09375 99.917969 20.171875 99.359375 20.171875 C 98.527344 20.179688 98.3125 20.140625 97.734375 19.910156 L 97.09375 19.652344 L 98.503906 19.5625 C 101.09375 19.386719 102.292969 19.070312 102.292969 18.550781 C 102.292969 18.1875 101.820312 17.957031 100.835938 17.859375 C 99.9375 17.777344 99.425781 17.769531 98.652344 17.851562 Z M 100.238281 18.285156 C 101.285156 18.65625 99.9375 19.226562 98.011719 19.226562 C 97.242188 19.226562 97.15625 19.210938 97.15625 19.039062 C 97.15625 18.78125 97.667969 18.429688 98.269531 18.285156 C 98.890625 18.132812 99.808594 18.132812 100.238281 18.285156 Z M 100.238281 18.285156 "/>
</g>
</svg>
